# xmcd
#
# Track frame offsets: 
#        150
#        13546
#        29952
#        47333
#        63436
#        78690
#        91511
#        106561
#        123190
#        139422
#
# Disc length: 2124 seconds
#
# Revision: 0
# Processed by: cddbd v1.5.2PL0 Copyright (c) Steve Scherf et al.
# Submitted via: ExactAudioCopy v0.99pb5
#
DISCID=78084a0a
DTITLE=White Tie Affair - Walk This Way
DYEAR=2008
DGENRE=Rock
TTITLE0=Allow Me To Introduce Myself... Mr. Right
TTITLE1=The Letdown
TTITLE2=Candle (Sick And Tired)
TTITLE3=Scene Change
TTITLE4=Watching You
TTITLE5=The Enemy
TTITLE6=Take It Home
TTITLE7=Price Of Company
TTITLE8=If I Fall
TTITLE9=The Way Down
EXTD=
EXTT0=
EXTT1=
EXTT2=
EXTT3=
EXTT4=
EXTT5=
EXTT6=
EXTT7=
EXTT8=
EXTT9=
PLAYORDER=
